<?xml version="1.0" standalone="no"?>
<!DOCTYPE svg PUBLIC "-//W3C//DTD SVG 20010904//EN"
 "http://www.w3.org/TR/2001/REC-SVG-20010904/DTD/svg10.dtd">
<svg version="1.0" xmlns="http://www.w3.org/2000/svg"
 width="900.000000pt" height="900.000000pt" viewBox="0 0 900.000000 900.000000"
 preserveAspectRatio="xMidYMid meet">
<metadata>
Created by potrace 1.11, written by Peter Selinger 2001-2013
</metadata>
<g transform="translate(0.000000,900.000000) scale(0.100000,-0.100000)"
fill="#000000" stroke="none">
<path d="M0 4500 l0 -4500 4500 0 4500 0 0 4500 0 4500 -4500 0 -4500 0 0
-4500z m2328 -494 c37 -30 110 -82 162 -116 128 -83 466 -248 622 -304 581
-208 1197 -229 1758 -59 146 44 307 110 435 177 104 55 172 82 182 72 3 -3
-11 -52 -32 -109 -35 -100 -36 -106 -21 -135 22 -43 88 -67 165 -59 118 13
397 126 720 293 90 46 166 82 169 80 14 -14 -141 -161 -276 -263 -603 -453
-1546 -654 -2457 -522 -541 78 -1015 260 -1377 528 l-85 63 -17 186 c-9 103
-19 195 -22 205 -8 26 1 22 74 -37z m936 -1130 c267 -104 486 -192 486 -195 0
-10 -138 -59 -210 -76 -87 -20 -242 -19 -311 1 -178 53 -344 203 -444 403 -27
53 -30 65 -16 59 5 -1 227 -88 495 -192z m2806 188 c0 -3 -16 -36 -35 -73
-102 -193 -260 -333 -434 -385 -78 -23 -228 -21 -327 4 -87 22 -194 61 -194
71 0 3 213 88 473 189 259 100 479 186 487 191 18 10 30 11 30 3z"/>
</g>
</svg>
